<?xml version="1.0" encoding="iso-8859-1"?>
<!-- Generator: Adobe Illustrator 19.0.0, SVG Export Plug-In . SVG Version: 6.00 Build 0)  -->
<svg version="1.1" id="Capa_1" xmlns="http://www.w3.org/2000/svg" xmlns:xlink="http://www.w3.org/1999/xlink" x="0px" y="0px"
	 viewBox="0 0 512 512" style="enable-background:new 0 0 512 512;" xml:space="preserve">
<path style="fill:#BC64FF;" d="M414.5,7.5h-30v497h30c49.5,0,90-40.5,90-90v-317C504.5,48,464,7.5,414.5,7.5z"/>
<path style="fill:#CD8BFF;" d="M474.5,97.5v317c0,49.5-40.5,90-90,90h-287c-49.5,0-90-40.5-90-90v-317c0-49.5,40.5-90,90-90h287
	C434,7.5,474.5,48,474.5,97.5z"/>
<g>
	<path style="fill:#FFFFFF;" d="M82.499,233.67c-5.118,0-10.236-1.952-14.142-5.857c-7.811-7.811-7.812-20.474-0.001-28.284
		l57.834-57.837c3.751-3.751,8.838-5.858,14.143-5.858s10.392,2.107,14.143,5.858l43.69,43.693l43.691-43.693
		c3.751-3.751,8.838-5.858,14.143-5.858c5.305,0,10.392,2.107,14.143,5.858l43.69,43.693l43.691-43.693
		c3.751-3.751,8.838-5.858,14.143-5.858s10.392,2.107,14.143,5.858l57.832,57.835c7.811,7.811,7.81,20.474-0.001,28.284
		c-7.809,7.811-20.474,7.811-28.284-0.001l-43.689-43.691l-43.691,43.693c-3.751,3.751-8.838,5.858-14.143,5.858
		s-10.392-2.107-14.143-5.858L256,184.118l-43.691,43.693c-3.751,3.751-8.838,5.858-14.143,5.858s-10.392-2.107-14.143-5.858
		l-43.69-43.693l-43.691,43.693C92.736,231.717,87.617,233.67,82.499,233.67z"/>
	<path style="fill:#FFFFFF;" d="M82.499,376.167c-5.118,0-10.236-1.952-14.142-5.857c-7.811-7.811-7.812-20.474-0.001-28.284
		l57.834-57.837c3.751-3.751,8.838-5.858,14.143-5.858s10.392,2.107,14.143,5.858l43.69,43.693l43.691-43.693
		c3.751-3.751,8.838-5.858,14.143-5.858c5.305,0,10.392,2.107,14.143,5.858l43.69,43.693l43.691-43.693
		c3.751-3.751,8.838-5.858,14.143-5.858s10.392,2.107,14.143,5.858l57.832,57.835c7.811,7.811,7.81,20.474-0.001,28.284
		c-7.809,7.811-20.474,7.811-28.284-0.001l-43.689-43.691l-43.691,43.693c-3.751,3.75-8.838,5.858-14.143,5.858
		s-10.392-2.107-14.143-5.858L256,326.615l-43.691,43.693c-3.751,3.75-8.838,5.858-14.143,5.858s-10.392-2.107-14.143-5.858
		l-43.69-43.693l-43.691,43.693C92.736,374.214,87.617,376.167,82.499,376.167z"/>
</g>
<path d="M414.5,0h-317C43.738,0,0,43.738,0,97.5v317C0,468.262,43.738,512,97.5,512h317c53.762,0,97.5-43.738,97.5-97.5v-317
	C512,43.738,468.262,0,414.5,0z M497,414.5c0,45.491-37.01,82.5-82.5,82.5h-317C52.01,497,15,459.991,15,414.5v-317
	C15,52.009,52.01,15,97.5,15h317c45.49,0,82.5,37.009,82.5,82.5V414.5z"/>
<path d="M391.113,136.388c-5.194-5.194-12.101-8.055-19.446-8.055s-14.252,2.861-19.446,8.055l-38.388,38.39l-38.387-38.39
	c-5.194-5.194-12.101-8.055-19.446-8.055s-14.251,2.861-19.446,8.055l-38.388,38.39l-38.387-38.39
	c-5.194-5.194-12.101-8.055-19.446-8.055s-14.251,2.861-19.446,8.055l-57.834,57.837c-10.722,10.722-10.721,28.168,0.001,38.891
	c5.194,5.194,12.1,8.054,19.445,8.054s14.252-2.861,19.446-8.055l38.388-38.39l5.936,5.936c2.93,2.929,7.679,2.929,10.606,0
	c2.93-2.929,2.93-7.677,0.001-10.606l-11.239-11.24c-1.407-1.407-3.314-2.197-5.304-2.197s-3.896,0.79-5.304,2.197l-43.691,43.693
	c-2.36,2.361-5.5,3.662-8.839,3.662s-6.478-1.3-8.838-3.661c-4.874-4.874-4.875-12.804-0.001-17.678l57.834-57.837
	c2.361-2.361,5.5-3.662,8.839-3.662s6.478,1.3,8.839,3.662l43.69,43.693c1.407,1.407,3.314,2.197,5.304,2.197
	s3.896-0.791,5.304-2.197l43.691-43.693c2.361-2.361,5.5-3.662,8.839-3.662s6.478,1.3,8.839,3.662l43.69,43.693
	c1.406,1.407,3.314,2.197,5.304,2.197s3.896-0.791,5.304-2.197l43.691-43.693c2.361-2.361,5.5-3.662,8.839-3.662
	s6.478,1.3,8.839,3.662l57.832,57.835c4.874,4.874,4.873,12.804-0.001,17.679c-2.36,2.36-5.499,3.661-8.838,3.66
	c-3.339,0-6.478-1.3-8.839-3.662l-43.689-43.691c-1.407-1.407-3.314-2.197-5.304-2.197s-3.896,0.79-5.304,2.197l-43.691,43.693
	c-2.361,2.361-5.5,3.662-8.839,3.662s-6.478-1.3-8.839-3.662l-43.69-43.693c-1.407-1.407-3.314-2.197-5.304-2.197
	s-3.896,0.79-5.304,2.197l-43.691,43.693c-2.361,2.361-5.5,3.662-8.839,3.662s-6.478-1.3-8.839-3.662l-11.239-11.24
	c-2.929-2.929-7.678-2.929-10.606,0c-2.93,2.929-2.93,7.677-0.001,10.606l11.239,11.24c5.195,5.194,12.101,8.055,19.446,8.055
	s14.252-2.861,19.446-8.055L256,194.725l38.387,38.39c5.195,5.194,12.101,8.055,19.446,8.055s14.252-2.861,19.446-8.055
	l38.388-38.39l38.386,38.387c5.194,5.195,12.101,8.056,19.446,8.056c7.347,0,14.253-2.861,19.445-8.055
	c10.722-10.723,10.723-28.169,0.001-38.891L391.113,136.388z"/>
<path d="M391.113,278.885c-5.194-5.194-12.101-8.055-19.446-8.055s-14.251,2.861-19.446,8.055l-38.388,38.389l-38.387-38.389
	c-5.194-5.194-12.101-8.055-19.446-8.055s-14.251,2.861-19.446,8.055l-38.388,38.389l-38.387-38.389
	c-5.194-5.194-12.101-8.055-19.446-8.055s-14.251,2.861-19.446,8.055l-57.834,57.837c-5.193,5.194-8.054,12.1-8.054,19.446
	c0,7.345,2.861,14.251,8.055,19.445s12.1,8.054,19.445,8.054s14.252-2.861,19.446-8.055l38.388-38.39l38.387,38.389
	c5.195,5.194,12.101,8.055,19.446,8.055s14.251-2.86,19.446-8.055L256,337.222l38.387,38.389c5.195,5.194,12.101,8.055,19.446,8.055
	s14.251-2.86,19.446-8.055l38.388-38.39l38.386,38.387c5.194,5.196,12.102,8.057,19.447,8.057
	c7.347-0.001,14.252-2.862,19.444-8.055c10.722-10.722,10.723-28.168,0.001-38.891L391.113,278.885z M438.337,365.005
	c-2.36,2.36-5.498,3.66-8.838,3.661c-3.339,0-6.478-1.301-8.839-3.663l-43.689-43.691c-1.407-1.407-3.314-2.197-5.304-2.197
	s-3.896,0.79-5.304,2.197l-43.69,43.693c-2.361,2.361-5.501,3.662-8.84,3.662s-6.478-1.3-8.839-3.662l-43.69-43.693
	c-1.407-1.407-3.314-2.197-5.304-2.197s-3.896,0.79-5.304,2.197l-43.69,43.693c-2.361,2.361-5.501,3.662-8.84,3.662
	s-6.478-1.3-8.839-3.662l-43.69-43.693c-1.407-1.407-3.314-2.197-5.304-2.197s-3.896,0.79-5.304,2.197l-43.691,43.693
	c-2.36,2.361-5.5,3.662-8.839,3.662s-6.478-1.3-8.838-3.661c-2.361-2.361-3.662-5.5-3.662-8.839c0-3.338,1.3-6.478,3.661-8.838
	l57.834-57.837c2.361-2.361,5.5-3.662,8.839-3.662s6.478,1.3,8.839,3.662l43.69,43.693c1.407,1.407,3.314,2.197,5.304,2.197
	s3.896-0.79,5.304-2.197l43.691-43.693c2.361-2.361,5.5-3.662,8.839-3.662s6.478,1.3,8.839,3.662l43.69,43.693
	c1.407,1.407,3.314,2.197,5.304,2.197s3.896-0.79,5.304-2.197l43.691-43.693c2.361-2.361,5.5-3.662,8.839-3.662
	s6.479,1.3,8.839,3.662l57.832,57.835C443.212,352.2,443.211,360.13,438.337,365.005z"/>
<g>
</g>
<g>
</g>
<g>
</g>
<g>
</g>
<g>
</g>
<g>
</g>
<g>
</g>
<g>
</g>
<g>
</g>
<g>
</g>
<g>
</g>
<g>
</g>
<g>
</g>
<g>
</g>
<g>
</g>
</svg>
