<?xml version="1.0" encoding="iso-8859-1"?>
<!-- Generator: Adobe Illustrator 19.0.0, SVG Export Plug-In . SVG Version: 6.00 Build 0)  -->
<svg version="1.1" id="Capa_1" xmlns="http://www.w3.org/2000/svg" xmlns:xlink="http://www.w3.org/1999/xlink" x="0px" y="0px"
	 viewBox="0 0 455.431 455.431" style="enable-background:new 0 0 455.431 455.431;" xml:space="preserve">
<path style="fill:#D1403F;" d="M405.493,412.764c-69.689,56.889-287.289,56.889-355.556,0c-69.689-56.889-62.578-300.089,0-364.089
	s292.978-64,355.556,0S475.182,355.876,405.493,412.764z"/>
<path style="fill:#E24C4B;" d="M229.138,313.209c-62.578,49.778-132.267,75.378-197.689,76.8
	c-48.356-82.489-38.4-283.022,18.489-341.333c51.2-52.622,211.911-62.578,304.356-29.867
	C377.049,112.676,330.116,232.142,229.138,313.209z"/>
<path style="fill:#FFFFFF;" d="M331.538,317.476c0,15.644-12.8,29.867-29.867,29.867c-15.644,0-29.867-12.8-29.867-29.867
	c1.422-66.844,44.089-68.267,45.511-147.911c1.422-54.044-46.933-96.711-100.978-89.6c-41.244,4.267-73.956,36.978-79.644,78.222
	c-2.844,27.022,5.689,52.622,22.756,71.111c-2.844,0-4.267,0-7.111,0c-34.133,0-61.156,28.444-58.311,61.156
	c1.422,29.867,25.6,55.467,56.889,56.889c34.133,1.422,61.156-25.6,61.156-58.311c0-4.267-1.422-11.378-2.844-21.333
	c-4.267-22.756-14.222-44.089-28.444-62.578c-8.533-9.956-12.8-24.178-11.378-38.4c1.422-29.867,25.6-55.467,56.889-56.889
	c34.133-1.422,61.156,25.6,62.578,58.311c0,68.267-46.933,71.111-42.667,147.911c1.422,32.711,27.022,59.733,59.733,59.733
	s59.733-27.022,59.733-59.733h-34.133V317.476z M182.204,289.031c0,15.644-12.8,29.867-29.867,29.867s-29.867-12.8-29.867-29.867
	c0-15.644,12.8-29.867,29.867-29.867S182.204,271.964,182.204,289.031z"/>
<g>
</g>
<g>
</g>
<g>
</g>
<g>
</g>
<g>
</g>
<g>
</g>
<g>
</g>
<g>
</g>
<g>
</g>
<g>
</g>
<g>
</g>
<g>
</g>
<g>
</g>
<g>
</g>
<g>
</g>
</svg>
