<?xml version="1.0" encoding="iso-8859-1"?>
<!-- Generator: Adobe Illustrator 19.0.0, SVG Export Plug-In . SVG Version: 6.00 Build 0)  -->
<svg version="1.1" id="Capa_1" xmlns="http://www.w3.org/2000/svg" xmlns:xlink="http://www.w3.org/1999/xlink" x="0px" y="0px"
	 viewBox="0 0 455.431 455.431" style="enable-background:new 0 0 455.431 455.431;" xml:space="preserve">
<path style="fill:#D1403F;" d="M405.39,412.764c-69.689,56.889-287.289,56.889-355.556,0s-62.578-300.089,0-364.089
	s292.978-64,355.556,0S475.079,355.876,405.39,412.764z"/>
<path style="fill:#E24C4B;" d="M229.034,313.209c-62.578,49.778-132.267,75.378-197.689,76.8
	c-48.356-81.067-38.4-283.022,18.489-341.333c51.2-52.622,211.911-62.578,304.356-29.867
	C376.945,112.676,330.012,232.142,229.034,313.209z"/>
<path style="fill:#FFFFFF;" d="M244.679,269.12v-82.489c36.978-2.844,73.956-15.644,102.4-36.978
	c7.111-5.689,8.533-17.067,2.844-24.178c-5.689-7.111-17.067-8.533-24.178-2.844c-22.756,17.067-51.2,27.022-82.489,29.867v-38.4
	c0-9.956-7.111-17.067-17.067-17.067s-17.067,7.111-17.067,17.067v38.4c-29.867-2.844-58.311-12.8-82.489-29.867
	c-7.111-5.689-18.489-4.267-24.178,2.844c-5.689,7.111-4.267,18.489,2.844,24.178c28.444,21.333,65.422,34.133,102.4,36.978v82.489
	c-36.978,2.844-73.956,15.644-102.4,36.978c-7.111,5.689-8.533,17.067-2.844,24.178c5.689,7.111,17.067,8.533,24.178,2.844
	c22.756-17.067,51.2-27.022,82.489-29.867v38.4c0,9.956,7.111,17.067,17.067,17.067s17.067-7.111,17.067-17.067v-38.4
	c29.867,2.844,58.311,12.8,82.489,29.867c7.111,5.689,18.489,4.267,24.178-2.844c5.689-7.111,4.267-18.489-2.844-24.178
	C318.634,283.342,283.078,271.964,244.679,269.12z"/>
<g>
</g>
<g>
</g>
<g>
</g>
<g>
</g>
<g>
</g>
<g>
</g>
<g>
</g>
<g>
</g>
<g>
</g>
<g>
</g>
<g>
</g>
<g>
</g>
<g>
</g>
<g>
</g>
<g>
</g>
</svg>
