<svg height="511pt" viewBox="1 0 511.999 511" width="511pt" xmlns="http://www.w3.org/2000/svg"><path d="m68.300781 492.496094c-13.335937 13.339844-34.960937 13.339844-48.296875 0-13.339844-13.335938-13.339844-34.960938 0-48.296875l92.488282-92.492188-53.363282-53.363281c-13.335937-13.335938-13.335937-34.960938 0-48.296875 13.335938-13.339844 34.960938-13.335937 48.296875 0l53.367188 53.363281 224.597656-224.601562h-82.167969c-18.863281 0-34.15625-15.289063-34.15625-34.152344s15.292969-34.15625 34.15625-34.15625h164.625c18.855469 0 34.152344 15.296875 34.152344 34.15625v164.621094c0 18.863281-15.289062 34.15625-34.152344 34.15625-18.863281 0-34.15625-15.289063-34.15625-34.15625v-82.167969l-224.601562 224.597656 53.363281 53.367188c13.335937 13.335937 13.335937 34.960937 0 48.296875-13.335937 13.335937-34.960937 13.335937-48.296875 0l-53.363281-53.363282zm0 0" fill="#fd4848" fill-rule="evenodd"/><path d="m362.984375 20.5h.269531c5.523438 0 10-4.480469 10-10 0-5.523438-4.476562-10-10-10h-.269531c-5.523437 0-10 4.476562-10 10 0 5.519531 4.476563 10 10 10zm0 0"/><path d="m223.230469 351.707031 18.175781-18.175781c3.90625-3.90625 3.90625-10.238281 0-14.144531-3.90625-3.902344-10.234375-3.902344-14.140625 0l-25.25 25.25c-3.902344 3.902343-3.902344 10.234375 0 14.140625l53.363281 53.367187c9.417969 9.414063 9.417969 24.738281 0 34.152344-9.414062 9.417969-24.738281 9.417969-34.15625 0l-53.363281-53.363281c-1.875-1.875-4.417969-2.929688-7.070313-2.929688-2.652343 0-5.195312 1.054688-7.070312 2.929688l-92.488281 92.492187c-9.417969 9.417969-24.738281 9.414063-34.15625 0-4.5625-4.5625-7.074219-10.628906-7.074219-17.078125 0-6.449218 2.511719-12.515625 7.074219-17.078125l92.488281-92.492187c3.90625-3.902344 3.90625-10.234375 0-14.140625l-53.363281-53.363281c-4.5625-4.5625-7.074219-10.628907-7.074219-17.078126 0-6.453124 2.515625-12.515624 7.074219-17.078124 4.5625-4.5625 10.628906-7.074219 17.078125-7.074219 6.453125 0 12.515625 2.511719 17.078125 7.074219l53.363281 53.363281c1.875 1.875 4.417969 2.929687 7.070312 2.929687 2.652344 0 5.195313-1.054687 7.070313-2.929687l224.601563-224.597657c2.859374-2.863281 3.714843-7.164062 2.167968-10.898437-1.546875-3.738281-5.191406-6.175781-9.238281-6.175781h-82.171875c-13.316406 0-24.152344-10.835938-24.152344-24.152344 0-13.320312 10.835938-24.15625 24.152344-24.15625h31.035156c5.523438 0 10-4.476562 10-10s-4.476562-10-10-10h-31.035156c-24.347656 0-44.152344 19.808594-44.152344 44.15625s19.808594 44.152344 44.152344 44.152344h58.03125l-200.460938 200.460937-46.292968-46.292969c-8.339844-8.339843-19.425782-12.933593-31.21875-12.933593-11.792969 0-22.882813 4.59375-31.222656 12.933593-8.335938 8.339844-12.929688 19.425782-12.929688 31.21875 0 11.792969 4.59375 22.882813 12.929688 31.21875l46.296874 46.292969-85.417968 85.421875c-8.339844 8.335938-12.933594 19.425782-12.933594 31.21875 0 11.792969 4.59375 22.882813 12.933594 31.222656 8.605468 8.605469 19.914062 12.910157 31.21875 12.910157 11.304687 0 22.613281-4.304688 31.21875-12.910157l85.417968-85.421874 46.292969 46.292968c17.214844 17.214844 45.226563 17.214844 62.441407 0 17.214843-17.214844 17.214843-45.226562 0-62.441406zm0 0"/><path d="m467.84375.5h-64.625c-5.519531 0-10 4.476562-10 10 0 5.519531 4.480469 10 10 10h64.625c13.320312 0 24.15625 10.835938 24.15625 24.15625v164.621094c0 13.320312-10.835938 24.15625-24.15625 24.15625-13.316406 0-24.152344-10.835938-24.152344-24.15625v-82.167969c0-4.046875-2.4375-7.691406-6.175781-9.238281-3.734375-1.546875-8.035156-.691406-10.894531 2.167968l-150.589844 150.582032c-3.90625 3.90625-3.90625 10.238281 0 14.144531 1.953125 1.953125 4.511719 2.929687 7.070312 2.929687 2.558594 0 5.117188-.976562 7.070313-2.929687l133.515625-133.515625v58.027344c0 24.347656 19.808594 44.15625 44.15625 44.15625s44.15625-19.808594 44.15625-44.15625v-164.621094c0-24.347656-19.808594-44.15625-44.15625-44.15625zm0 0"/><path d="m255.714844 290.9375-.1875.191406c-3.90625 3.90625-3.90625 10.238282 0 14.144532 1.953125 1.949218 4.511718 2.925781 7.070312 2.925781s5.117188-.976563 7.070313-2.925781l.191406-.191407c3.902344-3.90625 3.902344-10.238281 0-14.144531-3.90625-3.902344-10.238281-3.902344-14.144531 0zm0 0"/></svg>