<?xml version="1.0" encoding="iso-8859-1"?>
<!-- Generator: Adobe Illustrator 19.0.0, SVG Export Plug-In . SVG Version: 6.00 Build 0)  -->
<svg version="1.1" id="Capa_1" xmlns="http://www.w3.org/2000/svg" xmlns:xlink="http://www.w3.org/1999/xlink" x="0px" y="0px"
	 viewBox="0 0 512 512" style="enable-background:new 0 0 512 512;" xml:space="preserve">
<path style="fill:#BC64FF;" d="M414.5,7.5h-30v497h30c49.5,0,90-40.5,90-90v-317C504.5,48,464,7.5,414.5,7.5z"/>
<path style="fill:#CD8BFF;" d="M474.5,97.5v317c0,49.5-40.5,90-90,90h-287c-49.5,0-90-40.5-90-90v-317c0-49.5,40.5-90,90-90h287
	C434,7.5,474.5,48,474.5,97.5z"/>
<path style="fill:#FFFFFF;" d="M424.5,404.5h-56.167c-19.942,0-36.166-16.224-36.166-36.167V352.99
	C395.68,343.32,444.5,288.338,444.5,222.166c0-41.999-34.168-76.167-76.167-76.167c-13.081,0-25.4,3.317-36.166,9.15v-10.592
	c0-41.999-34.168-76.167-76.167-76.167c-22.213,0-42.231,9.562-56.167,24.782C185.898,77.953,165.88,68.39,143.667,68.39
	c-41.999,0-76.167,34.168-76.167,76.167V334.5c0,11.046,8.954,20,20,20s20-8.954,20-20V144.558
	c0-19.942,16.225-36.167,36.167-36.167s36.166,16.225,36.166,36.167V334.5c0,11.046,8.954,20,20,20s20-8.954,20-20V144.558
	c0-19.942,16.225-36.167,36.167-36.167s36.167,16.225,36.167,36.167v223.775c0,41.999,34.168,76.167,76.166,76.167H424.5
	c11.046,0,20-8.954,20-20S435.546,404.5,424.5,404.5z M368.333,186c19.942,0,36.167,16.224,36.167,36.167
	c0,44.047-31.004,80.982-72.333,90.146v-90.146C332.167,202.224,348.391,186,368.333,186z"/>
<path d="M414.5,0h-317C43.738,0,0,43.738,0,97.5v317C0,468.262,43.738,512,97.5,512h317c53.762,0,97.5-43.738,97.5-97.5v-317
	C512,43.738,468.262,0,414.5,0z M497,414.5c0,45.491-37.01,82.5-82.5,82.5h-317C52.01,497,15,459.991,15,414.5v-317
	C15,52.009,52.01,15,97.5,15h317c45.49,0,82.5,37.009,82.5,82.5V414.5z"/>
<path d="M417.816,313.681C439.86,288.265,452,255.764,452,222.166c0-46.134-37.533-83.667-83.667-83.667
	c-9.789,0-19.521,1.735-28.672,5.074C339.131,97.892,301.805,60.89,256,60.89c-20.769,0-40.841,7.834-56.167,21.715
	c-15.326-13.881-35.397-21.715-56.166-21.715C97.533,60.891,60,98.424,60,144.558V334.5c0,15.164,12.337,27.5,27.5,27.5
	s27.5-12.336,27.5-27.5V144.558c0-15.807,12.86-28.667,28.667-28.667s28.666,12.86,28.666,28.667V214c0,4.142,3.357,7.5,7.5,7.5
	s7.5-3.358,7.5-7.5v-69.442c0-24.078-19.589-43.667-43.666-43.667c-24.078,0-43.667,19.589-43.667,43.667V334.5
	c0,6.893-5.607,12.5-12.5,12.5S75,341.393,75,334.5V144.558c0-37.863,30.804-68.667,68.667-68.667
	c19.175,0,37.631,8.145,50.635,22.347c1.421,1.552,3.428,2.435,5.531,2.435s4.11-0.883,5.531-2.435
	c13.004-14.202,31.46-22.347,50.636-22.347c37.863,0,68.667,30.804,68.667,68.667v10.592c0,2.644,1.392,5.091,3.663,6.444
	c2.27,1.353,5.086,1.41,7.41,0.15c9.954-5.394,21.225-8.245,32.593-8.245c37.863,0,68.667,30.804,68.667,68.667
	c0,61.158-45.554,114.212-105.962,123.41c-3.664,0.558-6.371,3.708-6.371,7.415v15.343c0,24.078,19.589,43.667,43.666,43.667H424.5
	c6.893,0,12.5,5.607,12.5,12.5s-5.607,12.5-12.5,12.5h-56.167c-37.862,0-68.666-30.804-68.666-68.667V144.558
	c0-24.078-19.589-43.667-43.667-43.667s-43.667,19.589-43.667,43.667V334.5c0,6.893-5.607,12.5-12.5,12.5s-12.5-5.607-12.5-12.5V244
	c0-4.142-3.357-7.5-7.5-7.5s-7.5,3.358-7.5,7.5v90.5c0,15.164,12.337,27.5,27.5,27.5s27.5-12.336,27.5-27.5V144.558
	c0-15.807,12.86-28.667,28.667-28.667s28.667,12.86,28.667,28.667v223.775c0,46.134,37.532,83.667,83.666,83.667H424.5
	c15.163,0,27.5-12.336,27.5-27.5S439.663,397,424.5,397h-56.167c-15.807,0-28.666-12.86-28.666-28.667v-9.052
	C369.872,353.224,397.425,337.191,417.816,313.681z"/>
<path d="M332.167,319.812c0.541,0,1.086-0.059,1.623-0.178c21.823-4.839,41.661-17.12,55.861-34.583
	C404.063,267.329,412,244.995,412,222.166c0-24.078-19.589-43.667-43.667-43.667c-24.077,0-43.666,19.589-43.666,43.667v90.146
	c0,2.274,1.032,4.426,2.806,5.849C328.816,319.24,330.476,319.812,332.167,319.812z M339.667,222.166
	c0-15.807,12.859-28.667,28.666-28.667S397,206.359,397,222.166c0,36.263-23.614,68.623-57.333,80.249V222.166z"/>
<g>
</g>
<g>
</g>
<g>
</g>
<g>
</g>
<g>
</g>
<g>
</g>
<g>
</g>
<g>
</g>
<g>
</g>
<g>
</g>
<g>
</g>
<g>
</g>
<g>
</g>
<g>
</g>
<g>
</g>
</svg>
